<?xml version="1.0" standalone="no"?>
<!DOCTYPE svg PUBLIC "-//W3C//DTD SVG 20010904//EN"
 "http://www.w3.org/TR/2001/REC-SVG-20010904/DTD/svg10.dtd">
<svg version="1.0" xmlns="http://www.w3.org/2000/svg"
 width="260.000000pt" height="280.000000pt" viewBox="0 0 260.000000 280.000000"
 preserveAspectRatio="xMidYMid meet">

<g transform="translate(0.000000,280.000000) scale(0.100000,-0.100000)"
fill="#000000" stroke="none">
<path d="M876 1933 c-3 -3 -6 -58 -6 -122 l0 -116 318 -318 317 -318 110 3
110 3 0 435 0 435 -117 3 -118 3 0 -296 c0 -162 -1 -295 -3 -295 -2 0 -131
129 -287 286 -157 157 -292 289 -301 294 -9 5 -19 6 -23 3z"/>
<path d="M875 1498 c-3 -7 -4 -108 -3 -223 l3 -210 109 -3 c60 -1 113 1 118 6
10 10 -192 425 -212 437 -5 3 -12 0 -15 -7z"/>
<path d="M603 95 c0 -27 2 -38 4 -22 5 33 20 36 26 5 4 -20 4 -19 6 5 1 17 -4
27 -13 27 -8 0 -17 8 -19 18 -3 9 -5 -5 -4 -33z"/>
<path d="M1102 95 c0 -27 2 -43 5 -35 3 8 13 24 22 35 15 18 15 19 -1 7 -14
-12 -17 -10 -21 15 -2 16 -4 6 -5 -22z"/>
<path d="M720 120 c-4 -25 1 -54 10 -63 4 -5 5 3 3 17 -4 19 -1 26 10 26 9 0
17 -10 19 -22 2 -12 9 -23 16 -24 7 -1 8 0 2 3 -12 6 -13 40 -1 45 5 2 3 9 -5
16 -8 7 -14 8 -14 2 0 -14 -27 -13 -33 3 -4 8 -6 8 -7 -3z"/>
<path d="M949 118 c-2 -25 3 -53 11 -62 5 -5 6 1 3 14 -3 12 -1 25 4 29 7 4 6
11 -3 19 -11 10 -14 10 -15 0z"/>
<path d="M1500 125 c-1 -5 -1 -21 0 -34 1 -13 -4 -28 -12 -32 -9 -6 -3 -9 17
-9 17 0 25 4 18 8 -6 4 -13 23 -16 42 -2 19 -5 31 -7 25z"/>
<path d="M1557 123 c22 -4 22 -6 8 -33 -22 -42 -17 -51 5 -10 25 46 25 50 -7
49 -24 -2 -25 -2 -6 -6z"/>
<path d="M1600 110 c-8 -14 -8 -26 0 -40 11 -21 40 -28 40 -10 0 6 11 10 25
10 14 0 25 -6 25 -12 0 -10 2 -10 8 0 5 7 6 27 4 44 l-5 32 -22 -27 -23 -26
-6 25 c-8 29 -31 31 -46 4z m35 -20 c0 -27 -20 -38 -28 -15 -8 20 3 47 17 42
6 -2 11 -14 11 -27z m51 -7 c-10 -10 -19 5 -10 18 6 11 8 11 12 0 2 -7 1 -15
-2 -18z"/>
<path d="M1727 123 c-12 -12 -7 -33 7 -33 26 0 28 -20 4 -29 -14 -6 -17 -10
-7 -10 8 -1 20 4 26 10 14 14 6 39 -13 39 -20 0 -17 18 4 23 14 4 14 5 1 6 -9
0 -19 -2 -22 -6z"/>
<path d="M1785 120 c-4 -6 1 -7 11 -3 13 5 16 3 11 -10 -3 -9 -2 -19 4 -22 14
-9 -1 -27 -18 -21 -8 3 -11 1 -8 -4 8 -14 32 -13 37 2 13 39 -18 88 -37 58z"/>
<path d="M1847 123 c-3 -5 -4 -21 -3 -38 1 -23 6 -30 21 -30 11 0 20 6 19 13
-1 6 -2 23 -2 37 -2 23 -25 35 -35 18z m23 -13 c0 -5 -4 -10 -10 -10 -5 0 -10
5 -10 10 0 6 5 10 10 10 6 0 10 -4 10 -10z m2 -35 c0 -5 -5 -11 -11 -13 -6 -2
-11 4 -11 13 0 9 5 15 11 13 6 -2 11 -8 11 -13z"/>
<path d="M1905 120 c-4 -6 1 -7 11 -3 13 5 16 3 11 -10 -3 -9 -2 -19 4 -22 14
-9 -1 -27 -18 -21 -8 3 -11 1 -8 -4 8 -14 32 -13 37 2 13 39 -18 88 -37 58z"/>
<path d="M1967 123 c-3 -5 -4 -21 -3 -38 1 -23 6 -30 21 -30 11 0 20 6 19 13
-1 6 -2 23 -2 37 -2 23 -25 35 -35 18z m23 -13 c0 -5 -4 -10 -10 -10 -5 0 -10
5 -10 10 0 6 5 10 10 10 6 0 10 -4 10 -10z m2 -35 c0 -5 -5 -11 -11 -13 -6 -2
-11 4 -11 13 0 9 5 15 11 13 6 -2 11 -8 11 -13z"/>
<path d="M2040 125 c-1 -5 -1 -21 0 -34 1 -13 -4 -28 -12 -32 -9 -6 -3 -9 17
-9 17 0 25 4 18 8 -6 4 -13 23 -16 42 -2 19 -5 31 -7 25z"/>
<path d="M550 93 c0 -10 4 -14 8 -8 4 6 11 13 16 18 5 4 2 7 -7 7 -10 0 -17
-8 -17 -17z"/>
<path d="M661 83 c-1 -27 3 -33 19 -33 16 0 20 6 19 33 -2 30 -2 30 -6 5 -6
-36 -20 -36 -26 0 -4 25 -4 25 -6 -5z"/>
<path d="M807 104 c-13 -13 -7 -24 14 -24 11 0 19 5 17 12 -5 14 -22 21 -31
12z"/>
<path d="M861 78 c2 -28 2 -29 6 -8 3 14 10 28 17 32 7 5 5 8 -6 8 -14 0 -18
-8 -17 -32z"/>
<path d="M900 93 c0 -10 4 -14 8 -8 4 6 11 13 16 18 5 4 2 7 -7 7 -10 0 -17
-8 -17 -17z"/>
<path d="M997 103 c-4 -3 -7 -11 -7 -17 0 -6 5 -4 10 4 7 11 12 12 21 3 14
-14 2 -36 -18 -29 -8 3 -11 1 -8 -4 10 -15 32 -12 39 6 10 25 -20 55 -37 37z"/>
<path d="M1054 95 c-8 -20 2 -45 18 -44 10 0 10 2 1 6 -7 2 -13 13 -13 23 0
10 6 21 13 23 9 4 9 6 -1 6 -7 1 -15 -6 -18 -14z"/>
<path d="M1194 95 c-8 -20 2 -45 18 -44 10 0 10 2 1 6 -7 2 -13 13 -13 23 0
10 6 21 13 23 9 4 9 6 -1 6 -7 1 -15 -6 -18 -14z"/>
<path d="M1247 103 c-11 -10 -8 -41 4 -49 16 -9 41 20 33 39 -6 17 -25 22 -37
10z m28 -23 c0 -7 -6 -15 -12 -17 -8 -3 -13 4 -13 17 0 13 5 20 13 18 6 -3 12
-11 12 -18z"/>
<path d="M1301 77 c2 -31 2 -31 6 -4 2 15 8 27 13 27 5 0 11 -12 13 -27 l4
-28 2 28 c0 15 5 27 10 27 5 0 12 -12 14 -27 4 -27 4 -27 6 4 1 29 -1 31 -34
31 -33 0 -35 -2 -34 -31z"/>
<path d="M562 65 c-11 -12 -10 -15 3 -15 8 0 15 7 15 15 0 18 -2 18 -18 0z"/>
<path d="M912 65 c-11 -12 -10 -15 3 -15 8 0 15 7 15 15 0 18 -2 18 -18 0z"/>
<path d="M1120 71 c0 -5 5 -13 10 -16 6 -3 10 -2 10 4 0 5 -4 13 -10 16 -5 3
-10 2 -10 -4z"/>
<path d="M808 58 c5 -5 16 -8 23 -6 8 3 3 7 -10 11 -17 4 -21 3 -13 -5z"/>
</g>
</svg>
